<?xml version="1.0" encoding="UTF-8" standalone="no"?>
<svg
   xmlns:dc="http://purl.org/dc/elements/1.1/"
   xmlns:cc="http://creativecommons.org/ns#"
   xmlns:rdf="http://www.w3.org/1999/02/22-rdf-syntax-ns#"
   xmlns:svg="http://www.w3.org/2000/svg"
   xmlns="http://www.w3.org/2000/svg"
   xmlns:sodipodi="http://sodipodi.sourceforge.net/DTD/sodipodi-0.dtd"
   xmlns:inkscape="http://www.inkscape.org/namespaces/inkscape"
   width="15.23972mm"
   height="15.23972mm"
   viewBox="0 0 15.239719 15.239721"
   version="1.1"
   id="svg111794"
   inkscape:version="1.0.2-2 (e86c870879, 2021-01-15)"
   sodipodi:docname="DialMarksWhite10mmBi90deg.svg">
  <defs
     id="defs111788" />
  <sodipodi:namedview
     id="base"
     pagecolor="#858585"
     bordercolor="#666666"
     borderopacity="1.0"
     inkscape:pageopacity="0"
     inkscape:pageshadow="2"
     inkscape:zoom="8.0000001"
     inkscape:cx="29.304549"
     inkscape:cy="32.746345"
     inkscape:document-units="mm"
     inkscape:current-layer="layer1"
     showgrid="false"
     fit-margin-top="0"
     fit-margin-left="0"
     fit-margin-right="0"
     fit-margin-bottom="0"
     inkscape:window-width="1440"
     inkscape:window-height="1275"
     inkscape:window-x="2339"
     inkscape:window-y="627"
     inkscape:window-maximized="0"
     inkscape:document-rotation="0"
     showguides="true"
     inkscape:guide-bbox="true" />
  <metadata
     id="metadata111791">
    <rdf:RDF>
      <cc:Work
         rdf:about="">
        <dc:format>image/svg+xml</dc:format>
        <dc:type
           rdf:resource="http://purl.org/dc/dcmitype/StillImage" />
        <dc:title />
      </cc:Work>
    </rdf:RDF>
  </metadata>
  <g
     inkscape:label="Layer 1"
     inkscape:groupmode="layer"
     id="layer1"
     transform="translate(-135.80716,-61.39592)"
     style="opacity:1">
    <g
       id="g6261"
       style="display:inline;fill:#ffffff;fill-opacity:1;stroke:#ffffff;stroke-width:0.144409;stroke-miterlimit:4;stroke-dasharray:none;stroke-opacity:1"
       transform="matrix(0.6651125,0.00932141,-0.00946158,0.67511401,115.54749,63.313755)">
      <path
         d="m 41.768322,-2.2974606 c 0.0048,0.1850753 0.01448,0.832034 0.01931,1.4403683 l 0.01127,1.1072328 h 0.135185 0.136795 l -0.0097,-0.1416228 c -0.0048,-0.0772488 -0.01288,-0.60672495 -0.0177,-1.1780442 -0.0048,-0.5713193 -0.01288,-1.1555133 -0.0177,-1.3003548 l -0.01127,-0.2607147 h -0.128748 -0.128748 z"
         id="path6239"
         style="fill:#ffffff;fill-opacity:1;stroke:#ffffff;stroke-width:0.144409;stroke-miterlimit:4;stroke-dasharray:none;stroke-opacity:1" />
      <path
         d="m 46.311517,-0.2197897 c -0.350838,0.6340839 -0.664662,1.19896575 -0.695239,1.2536836 l -0.05472,0.09978 0.111045,0.064374 0.111045,0.064374 0.03058,-0.051499 c 0.02897,-0.046671 1.358291,-2.4365559 1.367947,-2.4574774 0.0032,-0.00805 -0.207606,-0.128748 -0.223699,-0.128748 -0.0032,0 -0.294511,0.51982005 -0.646959,1.1555128 z"
         id="path6241"
         style="fill:#ffffff;fill-opacity:1;stroke:#ffffff;stroke-width:0.144409;stroke-miterlimit:4;stroke-dasharray:none;stroke-opacity:1" />
      <path
         d="m 36.748759,-1.1660875 c -0.05472,0.033796 -0.09495,0.070811 -0.09173,0.082077 0.008,0.035406 1.472556,2.4285092 1.48543,2.4285092 0.01931,0 0.207606,-0.1158732 0.207606,-0.1271387 0,-0.017703 -1.480601,-2.4397746 -1.493476,-2.4429933 -0.0064,-0.00161 -0.05472,0.02575 -0.107827,0.059546 z"
         id="path6243"
         style="fill:#ffffff;fill-opacity:1;stroke:#ffffff;stroke-width:0.144409;stroke-miterlimit:4;stroke-dasharray:none;stroke-opacity:1" />
      <path
         d="m 49.599419,3.0278786 c -0.66788,0.3926814 -1.219887,0.7209888 -1.227934,0.7290355 -0.01127,0.011265 0.06115,0.1593257 0.111045,0.2236997 0.0048,0.00805 2.420463,-1.4097906 2.45104,-1.4387589 0.0177,-0.016094 0.01127,-0.037015 -0.04023,-0.1255293 -0.0354,-0.057937 -0.06598,-0.1062171 -0.07081,-0.1046078 -0.0048,0 -0.555226,0.32187 -1.223106,0.7161608 z"
         id="path6245"
         style="fill:#ffffff;fill-opacity:1;stroke:#ffffff;stroke-width:0.144409;stroke-miterlimit:4;stroke-dasharray:none;stroke-opacity:1" />
      <path
         d="m 33.048864,2.6255411 c -0.0338,0.057937 -0.05472,0.1126545 -0.04667,0.1190919 0.0177,0.017703 2.468743,1.4001345 2.481618,1.4001345 0.0048,0 0.03702,-0.04989 0.0692,-0.1094358 L 35.612558,3.9258959 34.373359,3.2258286 C 33.690994,2.841194 33.129331,2.5257614 33.122894,2.5225427 c -0.0064,-0.00161 -0.04023,0.045062 -0.07403,0.1029984 z"
         id="path6247"
         style="fill:#ffffff;fill-opacity:1;stroke:#ffffff;stroke-width:0.144409;stroke-miterlimit:4;stroke-dasharray:none;stroke-opacity:1" />
      <path
         d="m 50.605263,7.4294508 c -0.477977,0.00483 -0.928595,0.011266 -1.001016,0.012875 l -0.133576,0.00161 v 0.128748 0.1303573 l 0.833643,-0.00966 c 0.457056,-0.00483 1.102405,-0.012875 1.432322,-0.017703 l 0.598678,-0.00966 V 7.5388866 7.411748 l -0.429696,0.00322 c -0.238184,0.00161 -0.822378,0.00805 -1.300355,0.014484 z"
         id="path6249"
         style="fill:#ffffff;fill-opacity:1;stroke:#ffffff;stroke-width:0.144409;stroke-miterlimit:4;stroke-dasharray:none;stroke-opacity:1" />
      <path
         d="m 33.138987,7.6644159 -1.403353,0.00483 V 7.797992 7.92674 h 1.432321 1.432322 V 7.7899452 c 0,-0.1207012 -0.0032,-0.1367947 -0.02736,-0.133576 -0.01609,0.00322 -0.661443,0.00644 -1.433931,0.00805 z"
         id="path6251"
         style="fill:#ffffff;fill-opacity:1;stroke:#ffffff;stroke-width:0.144409;stroke-miterlimit:4;stroke-dasharray:none;stroke-opacity:1" />
      <path
         d="m 48.517936,11.304766 -0.06116,0.112654 0.141623,0.07886 c 0.560054,0.318652 2.357698,1.322886 2.360917,1.319667 0.03862,-0.04989 0.119092,-0.214043 0.109436,-0.223699 -0.01609,-0.01448 -2.433338,-1.377604 -2.467134,-1.388869 -0.0177,-0.0064 -0.04184,0.02414 -0.08369,0.101389 z"
         id="path6253"
         style="fill:#ffffff;fill-opacity:1;stroke:#ffffff;stroke-width:0.144409;stroke-miterlimit:4;stroke-dasharray:none;stroke-opacity:1" />
      <path
         d="m 34.350828,12.080472 c -0.663052,0.39751 -1.21345,0.724208 -1.221497,0.727427 -0.01609,0.0048 0.102998,0.220481 0.12392,0.220481 0.01127,0 2.422072,-1.425885 2.444603,-1.446806 0.01127,-0.01127 -0.111045,-0.228528 -0.128748,-0.225309 -0.0064,0.0016 -0.553617,0.326698 -1.218278,0.724207 z"
         id="path6255"
         style="fill:#ffffff;fill-opacity:1;stroke:#ffffff;stroke-width:0.144409;stroke-miterlimit:4;stroke-dasharray:none;stroke-opacity:1" />
      <path
         d="m 45.822275,14.056754 c -0.06276,0.03541 -0.09817,0.06598 -0.09334,0.07886 0.01127,0.03058 1.425884,2.404369 1.446806,2.428509 0.01448,0.01609 0.04184,0.0048 0.127139,-0.04506 0.104607,-0.06276 0.107826,-0.06759 0.0869,-0.09978 -0.01127,-0.01931 -0.342791,-0.572929 -0.735473,-1.231153 -0.391072,-0.656615 -0.71616,-1.194138 -0.722598,-1.192528 -0.0048,0.0016 -0.05472,0.02736 -0.109435,0.06115 z"
         id="path6257"
         style="fill:#ffffff;fill-opacity:1;stroke:#ffffff;stroke-width:0.144409;stroke-miterlimit:4;stroke-dasharray:none;stroke-opacity:1" />
      <path
         d="m 38.247064,14.159753 c -0.09334,0.160935 -1.329323,2.430118 -1.329323,2.439774 0,0.0048 0.04989,0.03541 0.109436,0.06759 l 0.111045,0.05794 0.682364,-1.247246 c 0.374979,-0.685583 0.683974,-1.252074 0.685583,-1.256902 0.0032,-0.0048 -0.04667,-0.03702 -0.107826,-0.0692 l -0.111045,-0.06116 z"
         id="path6259"
         style="fill:#ffffff;fill-opacity:1;stroke:#ffffff;stroke-width:0.144409;stroke-miterlimit:4;stroke-dasharray:none;stroke-opacity:1" />
    </g>
    <g
       id="g6237"
       transform="matrix(0.66511251,0.00932141,-0.00946158,0.67511402,115.54423,63.427385)"
       style="display:inline;opacity:0;fill:#ffffff;fill-opacity:0.33;stroke:none">
      <path
         d="m 42.721057,-1.1306818 c -0.01448,0.061155 -0.152888,1.3711662 -0.14806,1.3776036 0.01127,0.0112654 0.238184,0.0370151 0.24623,0.0289683 0.0048,-0.004828 0.04023,-0.30094845 0.07886,-0.6566148 0.03862,-0.3572757 0.07242,-0.671099 0.07725,-0.7000673 0.008,-0.057937 0.01609,-0.053109 -0.170591,-0.077249 -0.07081,-0.00966 -0.07725,-0.00644 -0.08369,0.027359 z"
         id="path6157"
         style="fill:#ffffff;fill-opacity:0.33;stroke:none;stroke-width:0.00160935" />
      <path
         d="m 40.937897,-1.0904481 c -0.04345,0.00483 -0.06115,0.014484 -0.06115,0.033796 0,0.043452 0.178638,1.3615101 0.185075,1.36955685 0.008,0.006437 0.233356,-0.0257496 0.243012,-0.0354057 0.0048,-0.004828 -0.03219,-0.31060455 -0.08208,-0.6823644 -0.04828,-0.3701505 -0.08851,-0.67914575 -0.08851,-0.68558315 0,-0.011265 -0.0853,-0.011265 -0.196341,0 z"
         id="path6159"
         style="fill:#ffffff;fill-opacity:0.33;stroke:none;stroke-width:0.00160935" />
      <path
         d="m 43.638387,-0.99066835 c -0.02253,0.0692021 -0.296121,1.3293231 -0.291293,1.33415115 0.0064,0.008047 0.239793,0.0675927 0.243012,0.0627647 0.01127,-0.0112655 0.29773,-1.3357605 0.292902,-1.35024465 -0.0032,-0.009656 -0.05794,-0.0305777 -0.122311,-0.0450618 -0.104608,-0.0257496 -0.115873,-0.0257496 -0.12231,-0.001609 z"
         id="path6161"
         style="fill:#ffffff;fill-opacity:0.33;stroke:none;stroke-width:0.00160935" />
      <path
         d="m 40.052755,-0.94560655 c -0.0515,0.0128748 -0.09334,0.0305777 -0.09334,0.0370151 0,0.0241402 0.305777,1.3421979 0.313824,1.3486353 0.008,0.008047 0.209215,-0.0305777 0.231746,-0.0450618 0.0097,-0.004828 -0.04667,-0.28163625 -0.140013,-0.6888018 C 40.189553,-1.058261 40.22174,-0.9906683 40.052758,-0.9456065 Z"
         id="path6163"
         style="fill:#ffffff;fill-opacity:0.33;stroke:none;stroke-width:0.00160935" />
      <path
         d="m 44.538013,-0.79432765 c -0.02414,0.0675927 -0.408775,1.2842613 -0.413603,1.3100109 -0.0032,0.0241402 0.01609,0.037015 0.114264,0.0675927 0.06598,0.0209216 0.120701,0.0354057 0.122311,0.0337964 0.0097,-0.0128748 0.429696,-1.35024465 0.424868,-1.3550727 -0.0032,-0.001609 -0.04989,-0.0160935 -0.102998,-0.032187 -0.05311,-0.0160935 -0.106217,-0.0337964 -0.115873,-0.0370151 -0.01127,-0.004828 -0.02414,0.001609 -0.02897,0.0128748 z"
         id="path6165"
         style="fill:#ffffff;fill-opacity:0.33;stroke:none;stroke-width:0.00160935" />
      <path
         d="m 39.183706,-0.68811055 c -0.06115,0.0225309 -0.109436,0.0466711 -0.109436,0.0531086 0,0.0128748 0.466711,1.29230805 0.473149,1.3003548 0.0064,0.004828 0.220481,-0.0740301 0.231746,-0.0852956 0.0097,-0.009656 -0.465102,-1.31162025 -0.477977,-1.3100109 -0.0048,0 -0.05794,0.0193122 -0.117482,0.0418431 z"
         id="path6167"
         style="fill:#ffffff;fill-opacity:0.33;stroke:none;stroke-width:0.00160935" />
      <path
         d="m 45.128645,0.14875145 -0.275199,0.6405213 0.114264,0.0531086 c 0.06276,0.0289683 0.119092,0.0466711 0.125529,0.0402337 0.008,-0.009656 0.508555,-1.1683881 0.542351,-1.255293 0.0048,-0.0128748 -0.02736,-0.037015 -0.09978,-0.0692021 -0.05955,-0.0257496 -0.112654,-0.0482805 -0.119092,-0.0482805 -0.0064,0 -0.136794,0.28807365 -0.288073,0.638912 z"
         id="path6169"
         style="fill:#ffffff;fill-opacity:0.33;stroke:none;stroke-width:0.00160935" />
      <path
         d="m 38.333969,-0.3421003 c -0.05794,0.0257496 -0.106217,0.0498899 -0.109436,0.0531086 -0.0032,0.003219 0.589022,1.2488556 0.598678,1.2585117 0.0016,0.003219 0.05633,-0.0209216 0.119092,-0.0514992 l 0.115874,-0.054718 -0.08691,-0.18185655 C 38.70412,0.1149551 38.45628,-0.3935995 38.448233,-0.39199015 c -0.0048,0 -0.05633,0.0225309 -0.114264,0.0498898 z"
         id="path6171"
         style="fill:#ffffff;fill-opacity:0.33;stroke:none;stroke-width:0.00160935" />
      <path
         d="m 46.62695,0.9614732 -0.403947,0.5664912 0.09495,0.069202 c 0.0515,0.038624 0.101389,0.069202 0.109436,0.069202 0.0064,0 0.194732,-0.252668 0.416822,-0.5632725 L 47.248159,0.54143285 47.14516,0.46740275 C 47.088833,0.427169 47.040553,0.394982 47.037334,0.394982 47.034134,0.396591 46.850649,0.65086865 46.62695,0.9614732 Z"
         id="path6173"
         style="fill:#ffffff;fill-opacity:0.33;stroke:none;stroke-width:0.00160935" />
      <path
         d="m 36.740712,0.60580685 c -0.04828,0.0354057 -0.0869,0.0740301 -0.0869,0.0869049 0.0016,0.0209216 0.822377,1.10240475 0.836862,1.10240475 0.01127,0 0.199559,-0.1448415 0.199559,-0.1528883 0,-0.011265 -0.838471,-1.09435795 -0.849737,-1.099186 -0.008,-0.001609 -0.0515,0.0257496 -0.09978,0.0627646 z"
         id="path6175"
         style="fill:#ffffff;fill-opacity:0.33;stroke:none;stroke-width:0.00160935" />
      <path
         d="m 47.301267,1.4764652 -0.453836,0.51982 0.09173,0.085296 c 0.04989,0.046671 0.09656,0.082077 0.10139,0.080468 0.0064,-0.00322 0.215652,-0.2381838 0.465102,-0.5246481 L 47.95788,1.1191904 47.8919,1.0596444 c -0.07886,-0.0708113 -0.115874,-0.0997797 -0.128748,-0.101389 -0.0048,0 -0.212435,0.2333557 -0.461884,0.5182107 z"
         id="path6177"
         style="fill:#ffffff;fill-opacity:0.33;stroke:none;stroke-width:0.00160935" />
      <path
         d="m 36.018114,1.2060944 -0.08529,0.085295 0.489242,0.5085546 0.487633,0.5085546 0.09334,-0.091733 0.09173,-0.090124 L 36.977287,2.004332 C 36.912913,1.9383486 36.694041,1.7114303 36.492873,1.5006054 36.290095,1.2913899 36.119503,1.1191895 36.114675,1.1191895 c -0.0064,0 -0.04989,0.038624 -0.09656,0.086905 z"
         id="path6179"
         style="fill:#ffffff;fill-opacity:0.33;stroke:none;stroke-width:0.00160935" />
      <path
         d="m 47.925695,2.0526125 c -0.278418,0.2558866 -0.508555,0.4747582 -0.511773,0.4860237 -0.0016,0.011265 0.0338,0.057937 0.08047,0.1046077 l 0.0853,0.082077 0.506945,-0.4667115 c 0.278418,-0.2558867 0.506945,-0.4715396 0.506945,-0.477977 0,-0.00644 -0.03541,-0.053109 -0.08047,-0.1029984 L 48.432642,1.58751 Z"
         id="path6181"
         style="fill:#ffffff;fill-opacity:0.33;stroke:none;stroke-width:0.00160935" />
      <path
         d="m 35.387249,1.8610998 c -0.04828,0.056327 -0.07725,0.1029984 -0.0692,0.1110452 0.04345,0.041843 1.046078,0.8851425 1.052515,0.8851425 0.01127,0 0.165763,-0.193122 0.159326,-0.1995594 -0.008,-0.00644 -0.579366,-0.4892424 -0.854565,-0.7225982 l -0.20278,-0.1722004 z"
         id="path6183"
         style="fill:#ffffff;fill-opacity:0.33;stroke:none;stroke-width:0.00160935" />
      <path
         d="m 48.698183,2.5305894 c -0.1722,0.128748 -0.42165,0.3122139 -0.552007,0.4103843 l -0.238184,0.1754191 0.04989,0.067593 c 0.02736,0.037015 0.06115,0.083686 0.07725,0.1029984 l 0.02736,0.037015 0.555226,-0.4103843 c 0.305776,-0.225309 0.556835,-0.4168216 0.560053,-0.4264777 0.008,-0.020922 -0.125529,-0.193122 -0.14806,-0.1915127 -0.0097,0 -0.159326,0.1062171 -0.331526,0.2349651 z"
         id="path6185"
         style="fill:#ffffff;fill-opacity:0.33;stroke:none;stroke-width:0.00160935" />
      <path
         d="m 34.812711,2.5949634 c -0.03862,0.057937 -0.06437,0.1110452 -0.05633,0.1174826 0.0177,0.017703 1.147467,0.7563945 1.153904,0.7563945 0.0097,0 0.141623,-0.2108249 0.135185,-0.2156529 -0.0032,-0.00322 -1.031593,-0.6775364 -1.131373,-0.7435197 -0.02897,-0.019312 -0.03701,-0.012875 -0.101389,0.085295 z"
         id="path6187"
         style="fill:#ffffff;fill-opacity:0.33;stroke:none;stroke-width:0.00160935" />
      <path
         d="m 49.422391,4.128674 c -0.313824,0.1496695 -0.597069,0.2848549 -0.630866,0.3009484 l -0.05794,0.028968 0.05794,0.1142639 0.05955,0.1142638 0.626037,-0.294511 c 0.344401,-0.1625444 0.630866,-0.2993391 0.634084,-0.3041672 0.01127,-0.00966 -0.09495,-0.2333557 -0.107826,-0.2317464 -0.0048,0 -0.267152,0.12392 -0.580975,0.2719802 z"
         id="path6189"
         style="fill:#ffffff;fill-opacity:0.33;stroke:none;stroke-width:0.00160935" />
      <path
         d="m 33.946881,4.1367207 c -0.01127,0.030578 -0.0338,0.082077 -0.04667,0.1158732 -0.01288,0.032187 -0.02253,0.059546 -0.02092,0.061155 0.0032,0.00161 0.236575,0.09978 0.51982,0.2172623 0.283246,0.1174825 0.56971,0.2381838 0.637303,0.2671521 l 0.12392,0.051499 0.04989,-0.1142639 c 0.02736,-0.062765 0.04506,-0.1190919 0.03862,-0.1255293 -0.01609,-0.014484 -1.242418,-0.5294761 -1.26173,-0.5294761 -0.0097,0 -0.02736,0.02575 -0.04023,0.056327 z"
         id="path6191"
         style="fill:#ffffff;fill-opacity:0.33;stroke:none;stroke-width:0.00160935" />
      <path
         d="m 49.684715,4.938177 c -0.346011,0.1174826 -0.635694,0.2172623 -0.640522,0.2236997 -0.0097,0.00805 0.04828,0.2156529 0.06598,0.2365744 0.01127,0.012875 1.326104,-0.4377432 1.326104,-0.455446 0,-0.011265 -0.01448,-0.064374 -0.0338,-0.1190919 -0.02414,-0.070811 -0.04184,-0.09978 -0.05955,-0.09817 -0.01609,0 -0.310605,0.096561 -0.658224,0.2124342 z"
         id="path6193"
         style="fill:#ffffff;fill-opacity:0.33;stroke:none;stroke-width:0.00160935" />
      <path
         d="m 33.604089,5.0540502 c -0.02092,0.067593 -0.0338,0.1255293 -0.03219,0.128748 0.01609,0.012875 1.308402,0.3942908 1.322886,0.3894627 0.01609,-0.00483 0.09656,-0.2365744 0.08208,-0.2365744 -0.0064,0 -1.293917,-0.3878534 -1.319667,-0.3975095 -0.0097,-0.00322 -0.03219,0.046671 -0.05311,0.1158732 z"
         id="path6195"
         style="fill:#ffffff;fill-opacity:0.33;stroke:none;stroke-width:0.00160935" />
      <path
         d="m 49.921289,5.7557268 c -0.349229,0.078858 -0.64374,0.1464509 -0.653396,0.1496696 -0.01288,0.00483 -0.01127,0.038624 0.008,0.1207012 0.01448,0.061155 0.03058,0.1158732 0.03541,0.1207013 0.0097,0.011265 1.335761,-0.2784176 1.353464,-0.2945111 0.0064,-0.00483 0,-0.062765 -0.01448,-0.1271386 -0.02253,-0.09978 -0.03058,-0.1158732 -0.05955,-0.1142639 -0.01931,0 -0.320261,0.065983 -0.66949,0.1448415 z"
         id="path6197"
         style="fill:#ffffff;fill-opacity:0.33;stroke:none;stroke-width:0.00160935" />
      <path
         d="m 33.401311,5.8410224 c -0.01448,0.043452 -0.05311,0.2349651 -0.04667,0.2349651 0.0016,0 0.104608,0.020922 0.226918,0.04828 0.659834,0.1416228 1.136202,0.2414025 1.13942,0.2381838 0.0048,-0.00805 0.05472,-0.2462306 0.0515,-0.2478399 -0.0032,-0.00322 -0.230137,-0.051499 -1.118498,-0.2397932 -0.1722,-0.037015 -0.249449,-0.046671 -0.252668,-0.033796 z"
         id="path6199"
         style="fill:#ffffff;fill-opacity:0.33;stroke:none;stroke-width:0.00160935" />
      <path
         d="m 50.06774,6.5925888 c -0.357276,0.043452 -0.651787,0.080468 -0.655006,0.083686 -0.0097,0.00805 0.01288,0.2156529 0.02414,0.2349651 0.008,0.011266 0.226918,-0.00805 0.693629,-0.064374 0.374979,-0.043452 0.683974,-0.082077 0.685584,-0.083686 0.0016,-0.00161 -0.0048,-0.059546 -0.01449,-0.128748 -0.01287,-0.1110451 -0.0177,-0.1239199 -0.04989,-0.1223106 -0.0177,0.00161 -0.326698,0.037015 -0.683974,0.080468 z"
         id="path6201"
         style="fill:#ffffff;fill-opacity:0.33;stroke:none;stroke-width:0.00160935" />
      <path
         d="m 33.25647,6.7583519 c -0.0032,0.00966 -0.0097,0.065983 -0.01448,0.1271386 -0.008,0.080467 -0.0048,0.1094358 0.0097,0.1142639 0.01127,0.00322 0.180247,0.020922 0.374978,0.040234 0.194732,0.019312 0.497289,0.04989 0.672709,0.069202 0.175419,0.017703 0.32026,0.030578 0.323479,0.027359 0.0032,-0.00322 0.01127,-0.061155 0.0177,-0.128748 l 0.0097,-0.1223106 -0.181857,-0.019312 C 33.584777,6.7712267 33.261298,6.7422584 33.25647,6.7583519 Z"
         id="path6203"
         style="fill:#ffffff;fill-opacity:0.33;stroke:none;stroke-width:0.00160935" />
      <path
         d="m 49.446531,8.2325165 c -0.0016,0.00483 -0.0064,0.062765 -0.0097,0.128748 l -0.0064,0.1207012 0.64374,0.059546 c 0.354057,0.032187 0.666271,0.059546 0.695239,0.059546 l 0.04989,0.00161 0.01127,-0.1207013 c 0.0064,-0.067593 0.0097,-0.1239199 0.0064,-0.1271386 C 50.8257,8.3435618 49.452929,8.2228611 49.446492,8.2325172 Z"
         id="path6205"
         style="fill:#ffffff;fill-opacity:0.33;stroke:none;stroke-width:0.00160935" />
      <path
         d="m 33.940443,8.4980592 -0.683973,0.080467 0.0064,0.064374 c 0.0097,0.1303574 0.02575,0.193122 0.04989,0.1899033 0.01287,-0.00161 0.323479,-0.037015 0.688802,-0.080467 L 34.66626,8.6750877 34.654995,8.57048 c -0.0064,-0.057937 -0.01448,-0.1158732 -0.02092,-0.128748 -0.008,-0.020922 -0.09656,-0.014484 -0.69363,0.056327 z"
         id="path6207"
         style="fill:#ffffff;fill-opacity:0.33;stroke:none;stroke-width:0.00160935" />
      <path
         d="m 49.322611,9.1257057 c -0.02414,0.1190919 -0.02414,0.1207013 0.0097,0.128748 0.05311,0.012875 1.319667,0.2655428 1.329323,0.2655428 0.01127,0 0.05633,-0.2397932 0.04667,-0.2478399 -0.008,-0.00805 -1.303573,-0.2671521 -1.33576,-0.2671521 -0.01931,0 -0.03219,0.030578 -0.04989,0.1207012 z"
         id="path6209"
         style="fill:#ffffff;fill-opacity:0.33;stroke:none;stroke-width:0.00160935" />
      <path
         d="m 34.086894,9.3542334 c -0.366931,0.082077 -0.669489,0.1528883 -0.674317,0.1577163 -0.0048,0.00483 0.0032,0.062765 0.01931,0.1303574 0.02414,0.09817 0.0338,0.1190919 0.05472,0.1126545 0.01609,-0.00483 0.305776,-0.070811 0.646959,-0.1464509 0.341182,-0.075639 0.632474,-0.1416228 0.648568,-0.1464508 0.02575,-0.00805 0.02736,-0.019312 0.01931,-0.075639 -0.0064,-0.037015 -0.02092,-0.091733 -0.03058,-0.1239199 l -0.0177,-0.057937 z"
         id="path6211"
         style="fill:#ffffff;fill-opacity:0.33;stroke:none;stroke-width:0.00160935" />
      <path
         d="m 49.134317,9.8434758 c -0.0177,0.056327 -0.0338,0.1126545 -0.0338,0.1271387 0,0.017703 0.05794,0.043453 0.214043,0.091734 0.872268,0.271981 1.110452,0.3444 1.118498,0.336354 0.0048,-0.0064 0.02414,-0.06116 0.04506,-0.122311 L 50.513528,10.163736 50.285,10.092926 C 50.16108,10.052697 49.866569,9.9609599 49.631604,9.8885391 49.396639,9.8161181 49.19708,9.7533537 49.187423,9.750135 c -0.01126,-0.00322 -0.0338,0.035406 -0.05311,0.093342 z"
         id="path6213"
         style="fill:#ffffff;fill-opacity:0.33;stroke:none;stroke-width:0.00160935" />
      <path
         d="m 34.2945,10.158908 c -0.358885,0.120702 -0.653396,0.220481 -0.655005,0.222091 -0.0032,0.0016 0.01448,0.05794 0.03702,0.12392 l 0.04023,0.12231 0.655005,-0.217262 c 0.360495,-0.120701 0.658224,-0.220481 0.661443,-0.2237 0.0097,-0.0097 -0.06598,-0.2478395 -0.07725,-0.2462302 -0.0048,0 -0.302557,0.09978 -0.661443,0.2188712 z"
         id="path6215"
         style="fill:#ffffff;fill-opacity:0.33;stroke:none;stroke-width:0.00160935" />
      <path
         d="m 48.862337,10.604698 -0.04828,0.120702 0.114264,0.04828 c 0.06437,0.02575 0.307386,0.127139 0.542351,0.2237 0.42004,0.17381 0.630865,0.260714 0.635693,0.260714 0.01448,0 0.08852,-0.230137 0.07886,-0.239793 -0.01127,-0.0097 -1.121717,-0.476367 -1.252074,-0.526257 -0.01448,-0.0048 -0.03702,0.03058 -0.07081,0.112654 z"
         id="path6217"
         style="fill:#ffffff;fill-opacity:0.33;stroke:none;stroke-width:0.00160935" />
      <path
         d="m 34.737072,10.913694 c -0.27359,0.128748 -0.558445,0.260714 -0.632475,0.29612 l -0.131967,0.06277 0.0515,0.109435 c 0.02897,0.05955 0.05472,0.112655 0.05633,0.115874 0.0048,0.0064 1.231153,-0.560054 1.250465,-0.579366 0.01288,-0.01127 -0.05472,-0.188294 -0.08691,-0.225309 -0.0048,-0.0064 -0.231746,0.09334 -0.506945,0.220481 z"
         id="path6219"
         style="fill:#ffffff;fill-opacity:0.33;stroke:none;stroke-width:0.00160935" />
      <path
         d="m 48.088239,11.964599 c -0.03702,0.05311 -0.06598,0.09978 -0.06598,0.104608 0,0.0032 0.193122,0.140013 0.431306,0.300948 0.236574,0.160935 0.49568,0.339573 0.576147,0.3959 l 0.14806,0.101389 0.06759,-0.106217 c 0.05955,-0.08851 0.06598,-0.107826 0.04667,-0.125529 -0.0338,-0.03219 -1.084702,-0.748348 -1.11367,-0.759613 -0.0177,-0.0064 -0.04345,0.02092 -0.09012,0.08851 z"
         id="path6221"
         style="fill:#ffffff;fill-opacity:0.33;stroke:none;stroke-width:0.00160935" />
      <path
         d="m 35.469326,12.411998 c -0.288074,0.217263 -0.535914,0.403947 -0.553616,0.415213 -0.02897,0.02092 -0.02575,0.02736 0.04023,0.119092 0.03863,0.05311 0.07725,0.09817 0.0853,0.09817 0.01127,0 1.055733,-0.772488 1.110451,-0.822378 0.01288,-0.01126 -0.127138,-0.209215 -0.14806,-0.205997 -0.0064,0 -0.24623,0.178638 -0.534305,0.3959 z"
         id="path6223"
         style="fill:#ffffff;fill-opacity:0.33;stroke:none;stroke-width:0.00160935" />
      <path
         d="m 47.623137,12.569715 -0.08047,0.09173 0.523038,0.465102 0.524649,0.465102 0.0853,-0.09173 c 0.04667,-0.0515 0.0853,-0.09656 0.0853,-0.101389 -0.0016,-0.01287 -1.018719,-0.906064 -1.038031,-0.912501 -0.01127,-0.0032 -0.05472,0.0338 -0.09978,0.08369 z"
         id="path6225"
         style="fill:#ffffff;fill-opacity:0.33;stroke:none;stroke-width:0.00160935" />
      <path
         d="m 35.984318,13.092753 c -0.270371,0.255887 -0.492461,0.474759 -0.49568,0.486024 -0.0016,0.01127 0.0338,0.05794 0.08047,0.104608 l 0.0853,0.08208 0.466712,-0.440962 c 0.257496,-0.243012 0.484414,-0.460274 0.506945,-0.481196 l 0.03862,-0.04023 -0.08691,-0.08851 c -0.04828,-0.04828 -0.09173,-0.08851 -0.09656,-0.08851 -0.0048,0 -0.228527,0.210825 -0.498898,0.466711 z"
         id="path6227"
         style="fill:#ffffff;fill-opacity:0.33;stroke:none;stroke-width:0.00160935" />
      <path
         d="m 47.064693,13.144253 -0.08851,0.08529 0.387853,0.418431 c 0.214043,0.230137 0.428087,0.460274 0.476367,0.511774 l 0.08852,0.09334 0.09334,-0.08851 0.09173,-0.08851 -0.465102,-0.503726 c -0.255891,-0.27681 -0.473153,-0.506947 -0.4812,-0.508557 -0.008,-0.0032 -0.05472,0.03219 -0.102998,0.08047 z"
         id="path6229"
         style="fill:#ffffff;fill-opacity:0.33;stroke:none;stroke-width:0.00160935" />
      <path
         d="m 36.574949,13.693041 -0.461883,0.518211 0.09012,0.08369 c 0.04828,0.04667 0.09334,0.0853 0.09978,0.0853 0.01127,0 0.909283,-1.005843 0.91733,-1.028374 0.0016,-0.008 -0.03862,-0.04989 -0.09012,-0.09495 l -0.09334,-0.08208 z"
         id="path6231"
         style="fill:#ffffff;fill-opacity:0.33;stroke:none;stroke-width:0.00160935" />
      <path
         d="m 46.490155,13.612574 c -0.0515,0.03702 -0.09334,0.07403 -0.09334,0.08047 0,0.01288 0.523038,0.727426 0.753175,1.029984 l 0.0692,0.09173 0.06759,-0.04828 c 0.03701,-0.02736 0.08369,-0.06115 0.104608,-0.07725 l 0.03541,-0.02736 -0.410385,-0.555226 c -0.225309,-0.305777 -0.416821,-0.556835 -0.423259,-0.558444 -0.0064,-0.0016 -0.05311,0.02736 -0.102998,0.06437 z"
         id="path6233"
         style="fill:#ffffff;fill-opacity:0.33;stroke:none;stroke-width:0.00160935" />
      <path
         d="m 37.233174,14.211252 c -0.217263,0.304167 -0.39751,0.561663 -0.399119,0.571319 -0.0032,0.0097 0.04023,0.04989 0.09495,0.09012 l 0.09978,0.07242 0.05633,-0.07725 c 0.392682,-0.548789 0.746739,-1.057343 0.741911,-1.067 -0.0032,-0.0048 -0.04989,-0.04023 -0.102999,-0.07725 l -0.09495,-0.06759 z"
         id="path6235"
         style="fill:#ffffff;fill-opacity:0.33;stroke:none;stroke-width:0.00160935" />
    </g>
    <g
       aria-label="+90"
       transform="matrix(1.0200512,0,0,0.91817805,136.10554,60.914675)"
       id="text7314"
       style="font-style:normal;font-variant:normal;font-weight:bold;font-stretch:normal;font-size:2.11667px;line-height:1.25;font-family:'IBM Plex Mono';-inkscape-font-specification:'IBM Plex Mono Bold';text-align:center;letter-spacing:0.240406px;text-anchor:middle;display:inline;fill:#ffffff;fill-opacity:1;stroke:none;stroke-width:0.0702467"
       inkscape:transform-center-x="-1.0291011"
       inkscape:transform-center-y="4.8417731e-06">
      <path
         d="M 10.149313,16.952409 V 16.562942 H 9.7810126 v -0.249767 h 0.3683004 v -0.389467 h 0.270934 v 0.389467 h 0.368301 v 0.249767 h -0.368301 v 0.389467 z"
         style="font-style:normal;font-variant:normal;font-weight:bold;font-stretch:normal;font-size:2.11667px;font-family:'IBM Plex Mono';-inkscape-font-specification:'IBM Plex Mono Bold';text-align:center;text-anchor:middle;fill:#ffffff;fill-opacity:1;stroke-width:0.0702467"
         id="path7441" />
      <path
         d="m 12.349752,16.167125 q 0,0.156633 -0.04868,0.294217 -0.04868,0.137584 -0.127,0.256117 -0.0762,0.116417 -0.173567,0.20955 -0.09525,0.09313 -0.190501,0.156634 h -0.43815 q 0.137583,-0.09525 0.245534,-0.182034 0.110066,-0.0889 0.1905,-0.175683 0.08255,-0.0889 0.13335,-0.182034 0.05292,-0.09313 0.0762,-0.201084 l -0.01905,-0.0064 q -0.01905,0.04233 -0.04868,0.08255 -0.02752,0.04022 -0.06773,0.07197 -0.0381,0.02963 -0.09313,0.04868 -0.05292,0.01905 -0.124884,0.01905 -0.09313,0 -0.173567,-0.03175 -0.08043,-0.03387 -0.1397,-0.09313 -0.05715,-0.06138 -0.09102,-0.14605 -0.03387,-0.08467 -0.03387,-0.1905 0,-0.112184 0.04022,-0.207434 0.04022,-0.09525 0.112184,-0.162983 0.07408,-0.06985 0.1778,-0.107951 0.103717,-0.0381 0.230717,-0.0381 0.13335,0 0.237067,0.04233 0.105834,0.04022 0.1778,0.118533 0.07197,0.0762 0.110067,0.184151 0.0381,0.10795 0.0381,0.2413 z m -0.560917,0.148167 q 0.10795,0 0.169333,-0.05715 0.06138,-0.05927 0.06138,-0.169334 v -0.02963 q 0,-0.110067 -0.05927,-0.169334 -0.05715,-0.06138 -0.17145,-0.06138 -0.1143,0 -0.173567,0.06138 -0.05927,0.05927 -0.05927,0.169334 v 0.02963 q 0,0.110067 0.05927,0.169334 0.06138,0.05715 0.173567,0.05715 z"
         style="font-style:normal;font-variant:normal;font-weight:bold;font-stretch:normal;font-size:2.11667px;font-family:'IBM Plex Mono';-inkscape-font-specification:'IBM Plex Mono Bold';text-align:center;text-anchor:middle;fill:#ffffff;fill-opacity:1;stroke-width:0.0702467"
         id="path7443" />
      <path
         d="m 13.305589,17.109043 q -0.296333,0 -0.43815,-0.201084 -0.1397,-0.201083 -0.1397,-0.563034 0,-0.36195 0.1397,-0.563034 0.141817,-0.201084 0.43815,-0.201084 0.296334,0 0.436034,0.201084 0.141817,0.201084 0.141817,0.563034 0,0.361951 -0.141817,0.563034 -0.1397,0.201084 -0.436034,0.201084 z m 0,-0.249767 q 0.141817,0 0.196851,-0.09948 0.05715,-0.09948 0.05715,-0.277283 v -0.275167 q 0,-0.177801 -0.05715,-0.277284 -0.05503,-0.09948 -0.196851,-0.09948 -0.141816,0 -0.198966,0.09948 -0.05503,0.09948 -0.05503,0.277284 v 0.275167 q 0,0.1778 0.05503,0.277283 0.05715,0.09948 0.198966,0.09948 z m 0,-0.389467 q -0.07408,0 -0.103716,-0.02963 -0.02752,-0.02963 -0.02752,-0.07197 v -0.04657 q 0,-0.04233 0.02752,-0.07197 0.02963,-0.02963 0.103716,-0.02963 0.07408,0 0.101601,0.02963 0.02963,0.02963 0.02963,0.07197 v 0.04657 q 0,0.04233 -0.02963,0.07197 -0.02752,0.02963 -0.101601,0.02963 z"
         style="font-style:normal;font-variant:normal;font-weight:bold;font-stretch:normal;font-size:2.11667px;font-family:'IBM Plex Mono';-inkscape-font-specification:'IBM Plex Mono Bold';text-align:center;text-anchor:middle;fill:#ffffff;fill-opacity:1;stroke-width:0.0702467"
         id="path7445" />
    </g>
    <g
       aria-label="-90"
       transform="matrix(1.0200512,0,0,0.91817805,135.68762,60.930029)"
       id="text7318"
       style="font-style:normal;font-variant:normal;font-weight:bold;font-stretch:normal;font-size:2.11667px;line-height:1.25;font-family:'IBM Plex Mono';-inkscape-font-specification:'IBM Plex Mono Bold';text-align:center;letter-spacing:0.240406px;text-anchor:middle;display:inline;fill:#ffffff;fill-opacity:1;stroke:none;stroke-width:0.0702467"
       inkscape:transform-center-x="-1.029105"
       inkscape:transform-center-y="4.2355814e-06">
      <path
         d="M 0.84649876,16.588342 V 16.287775 H 1.5238331 v 0.300567 z"
         style="font-style:normal;font-variant:normal;font-weight:bold;font-stretch:normal;font-size:2.11667px;font-family:'IBM Plex Mono';-inkscape-font-specification:'IBM Plex Mono Bold';text-align:center;text-anchor:middle;fill:#ffffff;fill-opacity:1;stroke-width:0.0702467"
         id="path7448" />
      <path
         d="m 3.2501382,16.167125 q 0,0.156633 -0.048683,0.294217 -0.048684,0.137584 -0.1270002,0.256117 -0.0762,0.116417 -0.173567,0.20955 -0.09525,0.09313 -0.1905003,0.156634 h -0.438151 q 0.1375835,-0.09525 0.2455337,-0.182034 0.1100668,-0.0889 0.1905003,-0.175683 0.08255,-0.0889 0.1333502,-0.182034 0.052917,-0.09313 0.0762,-0.201084 l -0.01905,-0.0064 q -0.01905,0.04233 -0.048684,0.08255 -0.027517,0.04022 -0.067733,0.07197 -0.0381,0.02963 -0.093133,0.04868 -0.052917,0.01905 -0.1248835,0.01905 -0.093133,0 -0.1735669,-0.03175 -0.080433,-0.03387 -0.1397002,-0.09313 -0.05715,-0.06138 -0.091017,-0.14605 -0.033867,-0.08467 -0.033867,-0.1905 0,-0.112184 0.040217,-0.207434 0.040217,-0.09525 0.1121835,-0.162983 0.074083,-0.06985 0.1778002,-0.107951 0.1037169,-0.0381 0.2307171,-0.0381 0.1333502,0 0.237067,0.04233 0.1058335,0.04022 0.1778003,0.118533 0.071967,0.0762 0.1100668,0.184151 0.0381,0.10795 0.0381,0.2413 z m -0.5609176,0.148167 q 0.1079502,0 0.1693336,-0.05715 0.061384,-0.05927 0.061384,-0.169334 v -0.02963 q 0,-0.110067 -0.059267,-0.169334 -0.05715,-0.06138 -0.1714503,-0.06138 -0.1143001,0 -0.1735669,0.06138 -0.059267,0.05927 -0.059267,0.169334 v 0.02963 q 0,0.110067 0.059267,0.169334 0.061383,0.05715 0.1735666,0.05715 z"
         style="font-style:normal;font-variant:normal;font-weight:bold;font-stretch:normal;font-size:2.11667px;font-family:'IBM Plex Mono';-inkscape-font-specification:'IBM Plex Mono Bold';text-align:center;text-anchor:middle;fill:#ffffff;fill-opacity:1;stroke-width:0.0702467"
         id="path7450" />
      <path
         d="m 4.2059754,17.109043 q -0.2963338,0 -0.4381507,-0.201084 -0.1397002,-0.201083 -0.1397002,-0.563034 0,-0.36195 0.1397002,-0.563034 0.1418169,-0.201084 0.4381507,-0.201084 0.2963337,0 0.436034,0.201084 0.1418168,0.201084 0.1418168,0.563034 0,0.361951 -0.1418168,0.563034 -0.1397003,0.201084 -0.436034,0.201084 z m 0,-0.249767 q 0.1418168,0 0.1968503,-0.09948 0.05715,-0.09948 0.05715,-0.277283 v -0.275167 q 0,-0.177801 -0.05715,-0.277284 -0.055034,-0.09948 -0.1968503,-0.09948 -0.1418169,0 -0.198967,0.09948 -0.055033,0.09948 -0.055033,0.277284 v 0.275167 q 0,0.1778 0.055033,0.277283 0.05715,0.09948 0.198967,0.09948 z m 0,-0.389467 q -0.074083,0 -0.1037169,-0.02963 -0.027517,-0.02963 -0.027517,-0.07197 v -0.04657 q 0,-0.04233 0.027517,-0.07197 0.029633,-0.02963 0.1037169,-0.02963 0.074083,0 0.1016001,0.02963 0.029633,0.02963 0.029633,0.07197 v 0.04657 q 0,0.04233 -0.029633,0.07197 -0.027517,0.02963 -0.1016001,0.02963 z"
         style="font-style:normal;font-variant:normal;font-weight:bold;font-stretch:normal;font-size:2.11667px;font-family:'IBM Plex Mono';-inkscape-font-specification:'IBM Plex Mono Bold';text-align:center;text-anchor:middle;fill:#ffffff;fill-opacity:1;stroke-width:0.0702467"
         id="path7452" />
    </g>
    <circle
       style="opacity:0;fill:#ffffff;fill-opacity:1;fill-rule:evenodd;stroke-width:0.126957;stroke-linecap:square;paint-order:markers stroke fill"
       id="path2371"
       cx="143.44147"
       cy="68.983459"
       r="7.5875311" />
  </g>
  <g
     inkscape:groupmode="layer"
     id="layer10"
     inkscape:label="Layer 2"
     sodipodi:insensitive="true"
     style="display:none">
    <circle
       style="fill:#000000;fill-opacity:0.474747;fill-rule:evenodd;stroke-width:0.109598;stroke-linecap:square;paint-order:markers stroke fill"
       id="path13077"
       cx="145.96716"
       cy="71.555923"
       r="6.5117707"
       transform="translate(-135.80716,-61.39592)" />
  </g>
</svg>
